<?xml version="1.0" encoding="UTF-8" standalone="no"?>
<svg width="128" height="128" viewBox="0 0 128 128" xmlns="http://www.w3.org/2000/svg">
  <defs>
    <linearGradient id="grad1" x1="0%" y1="0%" x2="100%" y2="100%">
      <stop offset="0%" style="stop-color:#4285f4;stop-opacity:1" />
      <stop offset="100%" style="stop-color:#34a853;stop-opacity:1" />
    </linearGradient>
    <linearGradient id="grad2" x1="0%" y1="0%" x2="100%" y2="100%">
      <stop offset="0%" style="stop-color:#fbbc05;stop-opacity:1" />
      <stop offset="100%" style="stop-color:#ea4335;stop-opacity:1" />
    </linearGradient>
  </defs>
  
  <!-- Background circle -->
  <circle cx="64" cy="64" r="60" fill="#ffffff" stroke="#e0e0e0" stroke-width="2"/>
  
  <!-- Main center icon - a speech bubble -->
  <path d="M64 40 C44 40 30 50 30 64 C30 78 44 88 64 88 C66 88 68 87.8 70 87.4 L82 98 L82 83.8 C89.6 79.8 98 72.4 98 64 C98 50 84 40 64 40 Z" 
        fill="url(#grad1)" stroke="#4285f4" stroke-width="2"/>
  
  <!-- Smaller bubbles representing multiple AI tools -->
  <circle cx="38" cy="45" r="12" fill="url(#grad2)" stroke="#ea4335" stroke-width="1.5"/>
  <circle cx="90" cy="45" r="12" fill="#34a853" stroke="#34a853" stroke-width="1.5"/>
  <circle cx="90" cy="83" r="12" fill="#fbbc05" stroke="#fbbc05" stroke-width="1.5"/>
  
  <!-- Connection lines -->
  <line x1="64" y1="64" x2="38" y2="45" stroke="#333" stroke-width="2" stroke-dasharray="2,2"/>
  <line x1="64" y1="64" x2="90" y2="45" stroke="#333" stroke-width="2" stroke-dasharray="2,2"/>
  <line x1="64" y1="64" x2="90" y2="83" stroke="#333" stroke-width="2" stroke-dasharray="2,2"/>
  
  <!-- Small dots to represent the prompt being sent -->
  <circle cx="51" cy="54.5" r="2" fill="#333"/>
  <circle cx="77" cy="54.5" r="2" fill="#333"/>
  <circle cx="77" cy="73.5" r="2" fill="#333"/>
</svg>